<svg xmlns:xlink="http://www.w3.org/1999/xlink"  width="96" height="96" fill="none" xmlns="http://www.w3.org/2000/svg" id="svg1272974553_4591"><g clip-path="url(#svg1272974553_4591_a)"><circle cx="47.999" cy="47.98" r="43.964" fill="#563E79" stroke="#fff" stroke-width="7.327"></circle><circle cx="47.999" cy="47.98" r="43.964" fill="#563E79" stroke="#272525" stroke-width="2"></circle><path d="M45.932 77.816a1.845 1.845 0 0 1-.104 3.686 1.845 1.845 0 0 1 .104-3.686ZM66.6 66.185c.86-.694 1.758-.592 2.501.328l5.942 7.352c.7.866.597 1.708-.282 2.419-.52.42-1.111.507-1.966.292l-6.9-1.771-.053.044 3.077 3.808c.743.92.647 1.825-.205 2.513-.86.695-1.757.593-2.5-.327l-5.942-7.353c-.694-.858-.605-1.702.248-2.391.548-.443 1.119-.524 1.973-.298l6.991 1.83.055-.043-3.143-3.89c-.744-.92-.648-1.824.205-2.513Zm5.389-8.535c1.269-3.674 4.407-5.166 8.196-3.857 3.79 1.309 5.342 4.431 4.075 8.097-1.266 3.666-4.415 5.163-8.204 3.854-3.79-1.309-5.334-4.428-4.067-8.094Zm2.778.96c-.506 1.463.469 2.876 2.516 3.583 2.055.71 3.697.192 4.2-1.263.502-1.455-.47-2.876-2.525-3.586-2.046-.707-3.686-.197-4.191 1.266Zm-1.113-13.346c-.132-1.167.483-1.91 1.71-2.05l9.064-1.032c1.227-.14 1.994.447 2.127 1.614.133 1.166-.483 1.91-1.71 2.05l-9.064 1.031c-1.227.14-1.994-.447-2.127-1.613ZM70.7 35.78c-.59-1.014-.325-1.943.742-2.564l6.826-3.97-.932-1.601c-.49-.842-.359-1.673.453-2.145.812-.473 1.59-.19 2.088.666l3.717 6.39c.499.857.36 1.672-.453 2.145-.811.472-1.598.175-2.088-.667l-.931-1.601-6.826 3.97c-1.067.621-2.005.392-2.595-.622Zm-8.095-9.027c-3.429-2.027-4.243-5.246-2.137-8.81 2.107-3.563 5.36-4.367 8.624-2.438 2.067 1.222 3.13 2.91 3.093 4.92a2.684 2.684 0 0 1-.352 1.347c-.478.809-1.334 1.01-2.165.519-.689-.408-.949-.925-.9-1.795.066-1.204-.28-1.985-1.112-2.476-1.303-.77-2.808-.104-3.95 1.828-1.154 1.954-1.02 3.589.298 4.368.868.513 1.736.43 2.759-.259.724-.49 1.261-.527 1.927-.133.906.536 1.17 1.44.67 2.285-.16.27-.387.519-.663.73-1.554 1.192-3.988 1.157-6.092-.086Zm-17.921-4.409c-1.174.01-1.884-.653-1.894-1.766-.002-.322.09-.793.25-1.238l2.743-7.78c.526-1.527 1.434-2.222 2.903-2.234 1.574-.014 2.484.64 3.063 2.183l2.901 7.732c.178.477.25.824.254 1.224.009 1.044-.759 1.798-1.828 1.808-1.087.009-1.657-.482-1.98-1.697l-.225-.85-4.087.035-.21.793c-.338 1.264-.89 1.782-1.89 1.79Zm2.772-5.337 2.618-.023-1.344-4.545h-.07l-1.204 4.568ZM32.452 27.434c-1 .614-1.935.372-2.582-.68l-4.662-7.587c-.646-1.052-.44-1.996.56-2.61l3.18-1.953c2.852-1.753 5.143-1.313 6.55.976.728 1.186.912 2.614.26 3.83l2.249 1.15c.556.292.766.5.993.87.515.837.231 1.838-.68 2.398-.77.474-1.25.39-2.411-.253l-2.951-1.647-1.253.77 1.307 2.126c.646 1.052.44 1.995-.56 2.61Zm-2.021-6.811 1.296-.797c.882-.542 1.09-1.415.594-2.223-.487-.793-1.408-1.013-2.253-.494l-1.304.802 1.666 2.712ZM24.39 37.19c-.573 1.025-1.507 1.27-2.585.667l-7.583-4.24c-1.078-.602-1.358-1.526-.785-2.551l2.712-4.85c.483-.866 1.256-1.161 2.076-.703.82.459.964 1.287.49 2.137l-1.813 3.241 1.761.985 1.74-3.113c.429-.766 1.126-1.034 1.863-.622.736.412.882 1.13.445 1.913l-1.74 3.112 1.753.98 1.812-3.241c.476-.85 1.257-1.16 2.077-.702.82.458.973 1.271.489 2.136l-2.712 4.85Zm-2.064 9.692c-.019 1.174-.725 1.832-1.96 1.812l-7.895-.127-.03 1.852c-.016.974-.556 1.618-1.496 1.603-.939-.015-1.459-.659-1.443-1.65l.12-7.39c.015-.992.556-1.618 1.495-1.603.939.015 1.459.676 1.443 1.65l-.03 1.851 7.896.128c1.234.02 1.92.7 1.9 1.874Zm4.742 16.398c.54.965.288 1.833-.745 2.41l-8.25 4.615c-.971.543-1.784.301-2.336-.686-.327-.584-.312-1.18.044-1.987l2.91-6.501-.034-.06-4.273 2.39c-1.032.577-1.908.33-2.443-.627-.539-.964-.287-1.832.745-2.41l8.25-4.614c.964-.54 1.78-.309 2.315.648.344.614.328 1.191-.04 1.995l-2.984 6.582.034.06 4.364-2.44c1.032-.578 1.908-.33 2.443.626Zm6.048 5.753c.959.677 1.104 1.632.392 2.64l-5.262 7.452c-.712 1.01-1.66 1.191-2.62.514-.959-.677-1.104-1.632-.392-2.64l5.262-7.453c.712-1.008 1.66-1.19 2.62-.513Z" fill="#F5CAC3"></path><path d="m40 51-4.5-5.5H31l-1 5L37.5 63l7 4H51l8-4 4-8.5-.5-11-3-1.5-3.5 1.5-1.5-4H48l-.5-9-3.5-2-4 2.5v20Z" fill="#F6BD60"></path><path d="M59.25 40.5a5.224 5.224 0 0 0-2.503.636 5.25 5.25 0 0 0-7.247-3.13V32.25a5.25 5.25 0 0 0-10.5 0v15l-.716-1.15a5.253 5.253 0 1 0-9.085 5.275l.876 1.543C36.527 64.292 39.197 69 48 69a16.519 16.519 0 0 0 16.5-16.5v-6.75a5.25 5.25 0 0 0-5.25-5.25Zm2.25 12A13.515 13.515 0 0 1 48 66c-7.056 0-8.97-3.375-15.315-14.565l-.88-1.55v-.01a2.25 2.25 0 0 1 .82-3.073c.342-.198.73-.302 1.125-.3a2.25 2.25 0 0 1 1.978 1.168l3.5 5.625A1.5 1.5 0 0 0 42 52.5V32.25a2.25 2.25 0 1 1 4.5 0V45a1.5 1.5 0 1 0 3 0v-2.25a2.25 2.25 0 1 1 4.5 0v3.75a1.5 1.5 0 1 0 3 0v-.75a2.25 2.25 0 1 1 4.5 0v6.75Z" fill="#272525"></path></g><defs><clipPath id="svg1272974553_4591_a"><path fill="#fff" d="M0 0h96v96H0z"></path></clipPath></defs></svg>