<svg xmlns:xlink="http://www.w3.org/1999/xlink"  width="119" height="85" fill="none" xmlns="http://www.w3.org/2000/svg" id="svg-1706943599_5882"><ellipse cx="60" cy="45.5" rx="54" ry="33.5" fill="#F28482" stroke="#fff" stroke-width="7"></ellipse><ellipse cx="53" cy="17.5" rx="7" ry="11.5" fill="#F7EDE2" stroke="#fff" stroke-width="7"></ellipse><ellipse cx="67" cy="17.5" rx="7" ry="11.5" fill="#F7EDE2" stroke="#fff" stroke-width="7"></ellipse><ellipse cx="60" cy="45.5" rx="54" ry="33.5" fill="#F28482" stroke="#272525" stroke-width="2"></ellipse><path d="M14.742 35.792c.09-.338.32-.508.688-.508h2.221c.18 0 .311.042.394.124.082.083.135.218.157.406.286 3.044.376 5.711.27 8.003l4.69-8.093c.098-.165.199-.278.304-.338a.716.716 0 0 1 .395-.102h2.209c.188 0 .323.072.406.215a.677.677 0 0 1 .056.507l-3.945 15.487c-.09.338-.32.507-.688.507h-1.972c-.188 0-.323-.068-.406-.203a.677.677 0 0 1-.056-.507l1.792-7.033a168.155 168.155 0 0 0-1.51 2.502c-.421.706-.913 1.06-1.477 1.06l-1.522-.159c-.533-.06-.781-.368-.744-.924.076-1.127.09-2.34.046-3.64l-2.142 8.397c-.09.338-.323.507-.699.507h-1.961c-.188 0-.323-.068-.406-.203a.677.677 0 0 1-.056-.507l3.956-15.498Zm14.547 11.71-1.995 4.058c-.158.331-.451.485-.88.462l-1.792-.067c-.277-.008-.462-.098-.552-.27-.09-.173-.075-.369.045-.587l7.71-14.844c.158-.3.35-.53.575-.688.225-.158.454-.236.687-.236l2.66-.023c.286 0 .511.094.677.282.172.188.248.466.225.834l-.857 15.07c-.022.338-.251.507-.687.507h-1.871c-.376 0-.552-.207-.53-.62l.248-3.877H29.29Zm1.341-2.75h2.514l.394-5.928-2.908 5.928Zm11.32-1.814.868-.124a2.76 2.76 0 0 0 1.083-.35c.3-.18.563-.48.788-.901.12-.369.241-.868.361-1.5.128-.63.192-1.13.192-1.498 0-.143-.075-.267-.226-.372a.764.764 0 0 0-.462-.158h-.293a8.428 8.428 0 0 0-.496-.012c-.21-.007-.394-.01-.552-.01l-1.262 4.925Zm-1.904-4.948h-.778c-.188 0-.327-.064-.417-.192a.519.519 0 0 1-.068-.45l.417-1.601a.538.538 0 0 1 .214-.327c.113-.09.218-.136.316-.136h4.914c1.045 0 1.89.248 2.537.744.646.496.969 1.248.969 2.255 0 .969-.195 2.006-.586 3.11-.391 1.098-.812 1.85-1.263 2.255-.518.518-1.014.894-1.488 1.127l.936 6.256c.09.646-.116.969-.62.969h-1.826c-.21 0-.39-.105-.54-.316-.144-.21-.238-.488-.283-.834l-.698-5.579h-.417l-1.59 6.222c-.09.338-.323.507-.699.507h-1.96c-.189 0-.324-.068-.407-.203a.677.677 0 0 1-.056-.507l3.393-13.3Zm11.349-2.198c.09-.338.319-.508.687-.508h1.961c.188 0 .323.072.406.215a.677.677 0 0 1 .056.507l-1.533 6.019 4.655-6.436c.06-.075.106-.128.136-.158a.495.495 0 0 1 .191-.101 1.24 1.24 0 0 1 .361-.045h2.266c.263 0 .417.09.462.27.052.18-.011.376-.192.586l-5.59 7.36 1.927 7.811c.143.459-.034.688-.53.688h-1.826c-.466 0-.751-.192-.856-.575l-1.635-6.932-1.78 7c-.09.338-.324.507-.7.507h-1.96c-.189 0-.324-.068-.407-.203a.677.677 0 0 1-.056-.507l3.956-15.498ZM66.237 52h-7.089c-.188 0-.324-.068-.406-.203a.677.677 0 0 1-.057-.507l3.382-13.255h-.834c-.233 0-.383-.064-.451-.192s-.064-.342.011-.642l.372-1.454c.045-.203.094-.331.147-.384.052-.052.157-.078.315-.078h8.555c.466 0 .643.248.53.743l-.293 1.364a.723.723 0 0 1-.293.451.778.778 0 0 1-.496.192h-4.396l-.902 3.528h3.934c.436 0 .597.248.485.744l-.293 1.363a.753.753 0 0 1-.27.451.722.722 0 0 1-.474.192h-4.08l-1.252 4.937h4.408c.435 0 .597.248.484.744l-.293 1.364a.753.753 0 0 1-.27.45.723.723 0 0 1-.474.192Zm14.438-13.965H77.36l-3.427 13.458c-.09.338-.323.507-.699.507h-1.96c-.189 0-.324-.068-.407-.203a.677.677 0 0 1-.056-.507l3.381-13.255h-3.516c-.233 0-.384-.064-.451-.192-.068-.128-.064-.342.011-.642l.372-1.454c.045-.196.113-.32.203-.372.098-.06.26-.09.485-.09h9.93c.466 0 .642.248.53.743l-.294 1.364a.723.723 0 0 1-.293.451.778.778 0 0 1-.496.192Zm2.098-2.243c.09-.338.32-.508.688-.508h1.961c.188 0 .323.072.406.215a.677.677 0 0 1 .056.507L81.94 51.493c-.09.338-.323.507-.699.507h-1.96c-.189 0-.324-.068-.406-.203a.677.677 0 0 1-.057-.507l3.956-15.498Zm6.122 0c.09-.338.32-.508.688-.508h1.961c.166 0 .29.053.372.158a.36.36 0 0 1 .113.124.35.35 0 0 1 .056.124c.015.038.03.094.045.17l.034.146 2.018 8.837 2.3-9.051c.09-.338.322-.508.698-.508h1.961c.188 0 .323.072.406.215a.677.677 0 0 1 .056.507l-3.945 15.487c-.09.338-.323.507-.698.507h-2.03c-.166 0-.278-.071-.338-.214a.571.571 0 0 1-.08-.293 1.45 1.45 0 0 0-.044-.203l-2.052-9.04-2.356 9.243c-.09.338-.323.507-.699.507h-1.96c-.189 0-.324-.068-.406-.203a.677.677 0 0 1-.057-.507l3.956-15.498Zm14.79 8.149h4.959c.248 0 .316.169.203.507l-.372 1.296c-.097.324-.195.519-.293.587-.015.06-.045.157-.09.292-.541 1.691-1.277 3.033-2.209 4.024-.924.992-1.999 1.488-3.224 1.488-.856 0-1.578-.169-2.164-.507-.661-.398-1.135-.988-1.42-1.77-.286-.789-.428-1.777-.428-2.964 0-1.202.214-2.641.642-4.317.353-1.428.827-2.697 1.42-3.81.601-1.112 1.319-1.998 2.153-2.66.842-.669 1.728-1.003 2.66-1.003.902 0 1.665.2 2.288.598.556.345.955.852 1.195 1.521.248.669.372 1.533.372 2.593 0 .375-.154.62-.462.732l-2.604.79c-.15.044-.259.037-.327-.023-.06-.068-.082-.184-.067-.35 0-.082.003-.206.011-.372.053-1.322-.09-2.029-.428-2.119-.519-.15-1.022.188-1.511 1.015-.488.819-.962 2.096-1.42 3.832-.398 1.488-.59 2.792-.575 3.911.015 1.112.229 1.717.643 1.815.368.098.77-.09 1.206-.564.436-.473.792-1.172 1.07-2.096H103.2c-.3 0-.394-.214-.282-.643l.417-1.521c.031-.113.068-.188.113-.226a.41.41 0 0 1 .237-.056Z" fill="#F7EDE2"></path><ellipse cx="57.5" cy="65" rx="4.5" ry="6" fill="#F7EDE2" stroke="#272525" stroke-width="2"></ellipse><ellipse cx="66.5" cy="65" rx="4.5" ry="6" fill="#F7EDE2" stroke="#272525" stroke-width="2"></ellipse><path d="M34 56c6.553 4.275 15.78 6.938 26 6.938S79.447 60.275 86 56H34Z" fill="#F28482"></path><path d="M34 56c6.553 4.275 15.78 6.938 26 6.938S79.447 60.275 86 56" stroke="#272525" stroke-width="2" stroke-linecap="round"></path><ellipse cx="53" cy="17.5" rx="7" ry="11.5" fill="#F7EDE2" stroke="#272525" stroke-width="2"></ellipse><ellipse cx="67" cy="17.5" rx="7" ry="11.5" fill="#F7EDE2" stroke="#272525" stroke-width="2"></ellipse><ellipse cx="56" cy="17.5" rx="4" ry="6.5" fill="#272525" stroke="#272525" stroke-width="2"></ellipse><ellipse cx="70" cy="17.5" rx="4" ry="6.5" fill="#272525" stroke="#272525" stroke-width="2"></ellipse></svg>