<svg xmlns:xlink="http://www.w3.org/1999/xlink"  width="115" height="91" fill="none" xmlns="http://www.w3.org/2000/svg" id="svg1188600909_1844"><circle cx="57.5" cy="45.5" r="39.5" fill="#563E79" stroke="#fff" stroke-width="8"></circle><rect x="7" y="30" width="101" height="32" rx="5" fill="#563E79" stroke="#fff" stroke-width="8"></rect><circle cx="57.5" cy="45.5" r="39.5" fill="#563E79" stroke="#272525" stroke-width="2"></circle><circle cx="57.5" cy="45.5" r="30.5" fill="#F6BD60" stroke="#272525" stroke-width="2"></circle><circle cx="57.5" cy="45.5" r="21.5" fill="#F28482" stroke="#272525" stroke-width="2"></circle><rect x="7" y="30" width="101" height="32" rx="4" fill="#84A59D" stroke="#272525" stroke-width="2"></rect><path d="M17.797 53.38c-2.923 0-4.863-.36-5.82-1.083v-4.473a2433.58 2433.58 0 0 0 .918.283 36.24 36.24 0 0 0 1.865.518c.657.156 1.185.234 1.582.234.65 0 .976-.198.976-.595 0-.306-.28-.632-.84-.977a13.973 13.973 0 0 0-.869-.488c-.319-.17-.644-.358-.976-.567-.814-.5-1.468-1.087-1.963-1.757-.488-.671-.732-1.517-.732-2.54 0-2.233 1.178-3.733 3.535-4.501.957-.313 2.06-.47 3.31-.47a19.224 19.224 0 0 1 4.492.558v4.482c-1.77-.378-3.043-.566-3.818-.566-.3 0-.524.052-.674.156-.15.104-.224.221-.224.351 0 .13.065.267.195.41.13.137.355.277.674.42.319.137.69.306 1.113.508.43.195.83.407 1.201.635 1.667 1.022 2.5 2.419 2.5 4.19 0 1.68-.566 2.978-1.699 3.896-1.146.911-2.728 1.37-4.746 1.377Zm6.841-.38 7.754-14.805c.267-.527.758-.879 1.474-1.054.209-.052.466-.078.772-.078s.638.087.996.263c.365.17.651.44.86.81L44.813 53h-7.92l-.615-1.543h-4.22L31.533 53h-6.894Zm7.9-4.639h3.155l-1.495-4.218-1.66 4.218Zm13.56-10.957h11.22v4.414h-5.146v1.446h5.147v4.258h-5.147V53h-6.074V37.404Zm12.73 0h11.24v4.492h-5.166v1.28h5.146v3.828h-5.146v1.474h5.508V53H58.828V37.404Zm13.062 0h14.765v5.059H82.31V53h-6.074V42.463H71.89v-5.059Zm20.278 9.512-4.756-9.512h6.963l1.553 3.194 1.601-3.194h5.821l-4.854 9.512V53h-6.328v-6.084Z" fill="#272525"></path></svg>