<svg xmlns:xlink="http://www.w3.org/1999/xlink"  xmlns="http://www.w3.org/2000/svg" xlink="http://www.w3.org/1999/xlink" viewBox="0 0 30 31" id="svg56294472"><g><defs><path d="M 14.103 5.963 C 14.47 5.22 15.53 5.22 15.897 5.963 L 18.294 10.82 C 18.44 11.115 18.721 11.32 19.047 11.367 L 24.408 12.146 C 25.228 12.266 25.555 13.273 24.962 13.852 L 21.083 17.633 C 20.847 17.863 20.74 18.194 20.795 18.518 L 21.711 23.857 C 21.851 24.674 20.994 25.297 20.26 24.911 L 15.465 22.391 C 15.174 22.237 14.826 22.237 14.535 22.391 L 9.74 24.911 C 9.006 25.297 8.149 24.674 8.289 23.857 L 9.205 18.518 C 9.26 18.194 9.153 17.863 8.917 17.633 L 5.038 13.852 C 4.445 13.273 4.772 12.266 5.592 12.146 L 10.953 11.367 C 11.279 11.32 11.56 11.115 11.706 10.82 Z" id="a1064z"></path><filter id="a1066z" x="-64.4%" y="-71.9%" width="217.8%" height="232.6%" filterUnits="objectBoundingBox"><feOffset dx="0" dy="2" in="SourceAlpha" result="a1068z"></feOffset><feGaussianBlur stdDeviation="1" in="a1068z" result="a1069z"></feGaussianBlur><feColorMatrix color-interpolation-filters="sRGB" values="0 0 0 0 0   0 0 0 0 0   0 0 0 0 0  0 0 0 0.25 0" type="matrix" in="a1069z" result="a1070z"></feColorMatrix></filter></defs><g filter="url(#a1066z)"><use stroke-width="6" stroke="black" stroke-linecap="round" stroke-linejoin="round" fill="black" fill-opacity="1" stroke-opacity="1" href="#a1064z" clip-path="url(#a1065z)"></use></g><use href="#a1064z" fill="var(--token-180517c5-35cf-4779-ba6e-f56a34e73325, rgb(255, 206, 128)) /* {&quot;name&quot;:&quot;Yellow&quot;} */" clip-path="url(#a1065z)" stroke-width="6" stroke="hsl(0, 0%, 100%)" stroke-linecap="round" stroke-linejoin="round"></use></g><path d="M 14.103 5.963 C 14.47 5.22 15.53 5.22 15.897 5.963 L 18.294 10.82 C 18.44 11.115 18.721 11.32 19.047 11.367 L 24.408 12.146 C 25.228 12.266 25.555 13.273 24.962 13.852 L 21.083 17.633 C 20.847 17.863 20.74 18.194 20.795 18.518 L 21.711 23.857 C 21.851 24.674 20.994 25.297 20.26 24.911 L 15.465 22.391 C 15.174 22.237 14.826 22.237 14.535 22.391 L 9.74 24.911 C 9.006 25.297 8.149 24.674 8.289 23.857 L 9.205 18.518 C 9.26 18.194 9.153 17.863 8.917 17.633 L 5.038 13.852 C 4.445 13.273 4.772 12.266 5.592 12.146 L 10.953 11.367 C 11.279 11.32 11.56 11.115 11.706 10.82 Z" fill="var(--token-180517c5-35cf-4779-ba6e-f56a34e73325, rgb(255, 206, 128)) /* {&quot;name&quot;:&quot;Yellow&quot;} */" stroke-width="2" stroke="var(--token-6cec2513-a4c4-4568-9362-fa09fce479ba, rgb(39, 37, 37)) /* {&quot;name&quot;:&quot;Black&quot;} */" stroke-linecap="round" stroke-linejoin="round"></path></svg>