<svg xmlns:xlink="http://www.w3.org/1999/xlink"  width="96" height="91" fill="none" xmlns="http://www.w3.org/2000/svg" id="svg1217870849_7724"><g clip-path="url(#svg1217870849_7724_a)"><mask id="svg1217870849_7724_b" maskUnits="userSpaceOnUse" x="-5.986" y="-6.052" width="102.845" height="102.845" fill="#000"><path fill="#fff" d="M-5.986-6.052H96.859V96.793H-5.986z"></path><path fill-rule="evenodd" clip-rule="evenodd" d="M12.104 10.195a4 4 0 0 0-3.877 4.12L9.98 72.124l-.2 1.77c-.083.732.038 1.44.316 2.068l.1 3.323a4 4 0 0 0 4.12 3.877l33.031-1 18.924 2.135a4 4 0 0 0 2.997-.89L82.25 72.678a4 4 0 0 0 1.427-2.635l5.933-52.55a4 4 0 0 0-3.526-4.424l-4.878-.55-.012-.416a4 4 0 0 0-4.12-3.877l-26.723.81-28.857-3.258a4 4 0 0 0-4.424 3.526l-.083.742-4.883.148Z"></path></mask><path fill-rule="evenodd" clip-rule="evenodd" d="M12.104 10.195a4 4 0 0 0-3.877 4.12L9.98 72.124l-.2 1.77c-.083.732.038 1.44.316 2.068l.1 3.323a4 4 0 0 0 4.12 3.877l33.031-1 18.924 2.135a4 4 0 0 0 2.997-.89L82.25 72.678a4 4 0 0 0 1.427-2.635l5.933-52.55a4 4 0 0 0-3.526-4.424l-4.878-.55-.012-.416a4 4 0 0 0-4.12-3.877l-26.723.81-28.857-3.258a4 4 0 0 0-4.424 3.526l-.083.742-4.883.148Z" fill="#F6BD60"></path><path d="m8.227 14.315 4.998-.152-4.998.152Zm3.877-4.12-.151-4.997.151 4.997ZM9.98 72.124l4.968.56.04-.355-.01-.357-4.998.152Zm-.2 1.77 4.968.562-4.968-.561Zm.316 2.068 4.998-.151-.03-.98-.397-.896-4.57 2.027Zm.1 3.323-4.997.151 4.998-.151Zm4.12 3.877.152 4.998-.152-4.998Zm33.031-1 .561-4.97-.355-.04-.357.011.151 4.998Zm21.92 1.244 3.186 3.855-3.185-3.855ZM82.25 72.68l-3.184-3.854 3.184 3.854Zm3.834-59.609.56-4.968-.56 4.968Zm-4.878-.55-4.997.151.13 4.331 4.306.486.561-4.968Zm-.012-.416-4.998.151 4.998-.151Zm-4.12-3.877-.151-4.998.151 4.998Zm-26.723.81-.561 4.968.355.04.357-.01-.151-4.998ZM21.494 5.779l-.561 4.968.56-4.968ZM17.07 9.305l4.969.56-4.969-.56Zm-.083.742.151 4.998 4.331-.131.486-4.306-4.968-.56Zm-3.762 4.116a1 1 0 0 1-.97 1.03l-.302-9.995a9 9 0 0 0-8.724 9.268l9.996-.303Zm1.752 57.81-1.752-57.81-9.996.303 1.752 57.809 9.996-.303Zm-.23 2.483.2-1.772-9.937-1.121-.2 1.77 9.937 1.123Zm-.081-.521c.072.162.101.346.081.52l-9.937-1.12a8.981 8.981 0 0 0 .715 4.656l9.14-4.055Zm.528 5.198-.101-3.322-9.996.303.101 3.322 9.996-.303Zm-1.03-.969a1 1 0 0 1 1.03.97l-9.996.302a9 9 0 0 0 9.269 8.724l-.303-9.996Zm33.03-1-33.03 1 .303 9.996 33.03-1.001-.302-9.996Zm19.637 2.165-18.924-2.136-1.121 9.936 18.924 2.137 1.121-9.937Zm-.749.223a1 1 0 0 1 .75-.223l-1.122 9.937a9 9 0 0 0 6.742-2.005l-6.37-7.71Zm12.984-10.727L66.082 79.552l6.37 7.709 12.983-10.727-6.37-7.71Zm-.357.658a1 1 0 0 1 .357-.658l6.369 7.709a9 9 0 0 0 3.21-5.929l-9.936-1.122Zm5.932-52.55-5.932 52.55 9.937 1.122 5.932-52.55-9.937-1.122Zm.882 1.106a1 1 0 0 1-.882-1.106l9.937 1.122a9 9 0 0 0-7.934-9.953l-1.121 9.937Zm-4.878-.55 4.878.55 1.121-9.937-4.877-.55-1.122 9.936Zm-4.449-5.234.013.416 9.995-.303-.013-.416-9.995.303Zm1.03.97a1 1 0 0 1-1.03-.97l9.995-.303a9 9 0 0 0-9.268-8.723l.303 9.995Zm-26.724.81 26.724-.81-.303-9.996-26.724.81.303 9.995Zm-29.569-3.288 28.857 3.258 1.121-9.937L22.055.81l-1.122 9.937Zm1.106-.881a1 1 0 0 1-1.106.881L22.055.81a9 9 0 0 0-9.953 7.934l9.937 1.122Zm-.084.742.084-.742-9.937-1.122-.084.743 9.937 1.121Zm-9.7 4.585 4.883-.148-.303-9.995-4.882.148.303 9.995Z" fill="#fff" mask="url(#svg1217870849_7724_b)"></path><path d="m77.044 7.227-64.97 1.969a5 5 0 0 0-4.846 5.15l1.968 64.97a5 5 0 0 0 5.15 4.846l53.277-1.615a5 5 0 0 0 3.549-1.635l11.326-12.465a5 5 0 0 0 1.297-3.514l-1.602-52.86a5 5 0 0 0-5.149-4.846Z" fill="#F6BD60" stroke="#272525" stroke-width="2"></path><path d="m86.196 12.077-64.59-7.292a5 5 0 0 0-5.53 4.408l-7.29 64.59a5 5 0 0 0 4.407 5.529l52.965 5.98a5 5 0 0 0 3.746-1.115L82.887 73.45a5 5 0 0 0 1.784-3.294l5.932-52.55a5 5 0 0 0-4.407-5.53Z" fill="#F6BD60" stroke="#272525" stroke-width="2"></path><path d="M66.964 84.376a1 1 0 0 0 1.617.894l15.482-12.341a1 1 0 0 0-.51-1.776l-9.938-1.122a5 5 0 0 0-5.53 4.408l-1.12 9.937Z" fill="#F6BD60" stroke="#272525" stroke-width="2" stroke-linejoin="round"></path><path d="m47.734 43.08.001-.004c.3-1.072.547-2.053.738-2.94.243-1.084.489-2.34.739-3.767a236.602 236.602 0 0 0 1.227-7.719 46.93 46.93 0 0 0 .334-2.174c.053-.467.056-.93.006-1.387a2.794 2.794 0 0 0-.626-1.608c-.398-.5-.97-.865-1.615-1.142-.67-.296-1.547-.484-2.575-.6l-2.405-.272c-.455-.051-1.122.02-1.53.62-.173.242-.252.529-.295.714a7.197 7.197 0 0 0-.134.824 43.232 43.232 0 0 1-.316 2.032 130.93 130.93 0 0 1-.662 3.529l-.002.01-.002.01c-.24 1.35-.521 2.8-.843 4.349l-.002.009-.001.009c-.294 1.556-.582 3.07-.866 4.539a43.811 43.811 0 0 1-.558 2.264l-.004.015-.003.014a11.36 11.36 0 0 1-.939 2.54l-.006.012-.006.013a5.513 5.513 0 0 1-1.452 1.903l-.008.007-.01.008c-.455.398-1.007.577-1.747.493-.61-.069-.941-.248-1.127-.436a2.908 2.908 0 0 1-.528-1.137 8.367 8.367 0 0 1-.123-1.63c.042-.625.09-1.172.143-1.643.027-.239.097-.737.214-1.514.147-.78.308-1.688.483-2.721.207-1.044.405-2.145.595-3.305.218-1.15.412-2.217.582-3.2.198-.974.351-1.802.458-2.482.13-.65.214-1.094.23-1.234.18-1.6.011-3.02-.688-4.12-.783-1.228-2.343-1.789-4.189-1.997l-2.404-.272c-.512-.057-1.03.097-1.407.524-.216.233-.329.519-.394.716a5.63 5.63 0 0 0-.189.816 87.22 87.22 0 0 1-.43 2.266c-.2.978-.428 2.087-.685 3.326l-.003.011-.002.011a297.651 297.651 0 0 1-.752 3.93 697.173 697.173 0 0 1-.798 3.933l-.002.011-.002.011a233.85 233.85 0 0 0-.626 3.575 51.489 51.489 0 0 0-.386 2.623c-.171 1.517-.132 2.978.124 4.379a9.907 9.907 0 0 0 1.625 3.922l.004.006.004.006c.84 1.166 1.968 2.126 3.356 2.892l.009.004.008.004c1.42.75 3.137 1.22 5.119 1.444 1.943.22 3.69.172 5.22-.174l.013-.003c1.517-.363 2.864-.912 4.025-1.662l.007-.005.008-.005a12.155 12.155 0 0 0 2.908-2.71 16.351 16.351 0 0 0 1.912-3.172 21.457 21.457 0 0 0 1.25-3.288Zm11.56 7.47a266.311 266.311 0 0 1 2.412-3.025l2.215 6.36a4.98 4.98 0 0 0 .86 1.629l.014.017.014.016c.398.457.893.849 1.466 1.185l.009.005.008.005c.62.347 1.354.625 2.185.846.835.221 1.827.394 2.966.523.898.1 1.669.13 2.269.05.37-.045.774-.166 1.11-.45.359-.303.543-.711.59-1.133.064-.565-.115-1.267-.36-1.973a25.727 25.727 0 0 0-1.033-2.588 57.42 57.42 0 0 0-1.406-3.026c-.525-1.09-1.05-2.165-1.579-3.225a361.302 361.302 0 0 0-1.417-3.07 46.158 46.158 0 0 1-.733-1.71 59.747 59.747 0 0 0 2.425-1.384l.007-.005.007-.004a59.498 59.498 0 0 0 3.508-2.351c1.123-.814 2.093-1.626 2.903-2.44.82-.79 1.475-1.66 1.579-2.58.068-.606-.06-1.31-.285-2.048a10.526 10.526 0 0 0-.897-2.319 8.781 8.781 0 0 0-1.438-2.082c-.567-.665-1.271-1.151-2.123-1.248-.754-.085-1.458.143-1.992.71l-.013.013-.012.014a212.93 212.93 0 0 0-2.407 2.799c-.683.81-1.317 1.568-1.9 2.272-.58.7-1.14 1.372-1.684 2.017a32.94 32.94 0 0 1-.66.757l-1.278-4.1-.002-.006c-.303-.95-.678-1.793-1.133-2.515a6.493 6.493 0 0 0-1.767-1.867c-.687-.5-1.512-.875-2.451-1.142-.898-.261-1.938-.455-3.113-.587-.965-.11-1.8-.13-2.452-.015a3.56 3.56 0 0 0-.817.227 1.54 1.54 0 0 0-.429.278c-.153.144-.33.384-.368.721a1.53 1.53 0 0 0 .042.515c.029.123.07.257.117.395.093.278.232.634.41 1.06.351.844.833 1.966 1.443 3.366a332.738 332.738 0 0 0 2.2 4.912l.003.007c.74 1.59 1.521 3.309 2.345 5.155-.848.462-1.74.977-2.679 1.544l-.01.007a41.786 41.786 0 0 0-3.488 2.413c-1.098.82-2.044 1.656-2.83 2.508-.786.825-1.368 1.714-1.473 2.65-.08.697.026 1.476.254 2.306l.002.007.002.006c.232.8.546 1.574.942 2.324l.005.01.005.009c.397.712.839 1.359 1.328 1.936l.02.023.02.022c.537.56 1.183 1.03 1.936 1.116.66.074 1.28-.1 1.83-.456.207-.125.383-.237.523-.333.108-.074.296-.205.43-.364l.004-.006a327.97 327.97 0 0 0 3.815-4.677l.005-.006Z" fill="#84A59D" stroke="#272525" stroke-width="2"></path><path d="m19.434 66.407.877-5.183c.165-.98 1.068-1.688 2.06-1.663 47.652 1.22 46.219 7.162 43.89 10.928-.549.89-1.713 1.273-2.705.945-11.505-3.803-31.173-3.482-41.967-2.674a2.026 2.026 0 0 1-2.155-2.353Z" fill="#F28482" stroke="#272525" stroke-width="2"></path></g><defs><clipPath id="svg1217870849_7724_a"><path fill="#fff" d="M0 0h96v91H0z"></path></clipPath></defs></svg>