<svg xmlns:xlink="http://www.w3.org/1999/xlink"  width="129" height="69" fill="none" xmlns="http://www.w3.org/2000/svg" id="svg1065178031_4646"><g clip-path="url(#svg1065178031_4646_a)"><path d="M62.004 4.77a7 7 0 0 1 5.696 0l50.942 22.688c5.537 2.465 5.537 10.323 0 12.788L67.7 62.935a7 7 0 0 1-5.696 0L11.062 40.246c-5.536-2.465-5.536-10.323 0-12.789L62.004 4.77Z" fill="#563E79" stroke="#fff" stroke-width="7.327"></path><path d="M62.004 4.77a7 7 0 0 1 5.696 0l50.942 22.688c5.537 2.465 5.537 10.323 0 12.788L67.7 62.935a7 7 0 0 1-5.696 0L11.062 40.246c-5.536-2.465-5.536-10.323 0-12.789L62.004 4.77Z" fill="#F5CAC3" stroke="#272525" stroke-width="2"></path><path d="M25.4 26.916c.888-.306 1.772-.611 2.653-.917v13.044c0 2.23-.778 2.988-2.355 2.247l-2.343-1.075C21.778 39.501 21 38.408 21 36.937V28.36c.88-.282 1.765-.57 2.653-.864V37.95a.58.58 0 0 0 .096.309c.074.105.16.167.266.202l1.023.353c.106.035.18.017.245-.044a.354.354 0 0 0 .117-.265v-11.59Zm11.282 2.124-2.525.37v-1.666a.757.757 0 0 0-.106-.423c-.064-.114-.15-.167-.245-.14-.348.075-.696.155-1.044.237-.107.027-.192.106-.267.247-.063.132-.095.29-.095.44v3.49c0 .15.032.3.095.415.075.114.16.185.267.176.568-.017 1.136-.038 1.704-.062 1.566-.017 2.355 1.516 2.355 4.627v4.989c0 3.2-.789 4.433-2.355 3.693l-2.237-1.058c-1.566-.74-2.354-2.344-2.354-4.768v-1.824l2.525.564v2.185c0 .177.032.327.095.468.075.14.16.237.267.282.39.129.781.261 1.172.396.106.036.18-.017.245-.123a.701.701 0 0 0 .117-.423v-4.16a.98.98 0 0 0-.117-.476c-.064-.132-.139-.212-.245-.23l-1.705-.21c-1.566-.203-2.354-1.481-2.354-3.852v-3.5c0-2.396.788-3.912 2.354-4.485a514.9 514.9 0 0 1 2.099-.767c1.577-.573 2.354.74 2.354 3.878v1.71Zm4.539 14.295c.98.3 1.96.596 2.94.89v5.297c-1.868-.84-3.732-1.683-5.593-2.53V22.29c1.86-.652 3.725-1.308 5.593-1.966v5.12l-2.94.635v6.267l2.748-.07V37.2c-.916-.1-1.832-.203-2.748-.309v6.443Zm7.138-5.358v13.378a518.88 518.88 0 0 1-2.664-1.154V19.786a753.117 753.117 0 0 1 4.73-1.622c1.567-.511 2.355 1.675 2.355 6.478v4.125c0 2.934-.362 4.794-1.087 5.605.629.66.949 2.177.949 4.53v14.216c-.888-.352-1.772-.71-2.653-1.075V39.166c0-.696-.117-1.03-.362-1.057-.427-.047-.85-.091-1.268-.132Zm0-14.375v9.448l1.395-.018c.107 0 .192-.114.256-.317a2.15 2.15 0 0 0 .107-.74v-7.73c0-.29-.032-.51-.107-.705-.064-.185-.149-.282-.255-.255l-1.396.317Zm9.258-.485v-7.121A63.348 63.348 0 0 1 64.254 15v7.544a76.14 76.14 0 0 0-1.992.08V55.85a53.806 53.806 0 0 1-2.653-.476V22.862c-.667.076-1.331.161-1.992.255Zm10.505 25.207c.98-.112 1.963-.244 2.95-.397v7.2c-1.867.4-3.735.69-5.603.873V15a59.03 59.03 0 0 1 5.604.732v6.918c-.988-.117-1.971-.22-2.951-.308v9.439c.923.012 1.843.026 2.759.044v6.663c-.916.047-1.836.088-2.76.123v9.713ZM79.415 27.03l-2.525-.335v-2.811c0-.282-.032-.564-.107-.793-.064-.23-.15-.37-.256-.397a65.32 65.32 0 0 0-1.044-.203c-.096-.017-.18.088-.255.3a2.828 2.828 0 0 0-.096.776v6.54c0 .29.032.58.096.801.074.23.16.362.255.362l1.715.07c1.567.123 2.355 2.441 2.355 6.998v7.297c0 4.663-.788 7.324-2.355 7.968-.745.294-1.491.581-2.237.864-1.576.555-2.354-1.86-2.354-7.192v-4.002c.838-.117 1.68-.24 2.525-.37v4.134c0 .326.032.573.096.784.074.212.16.317.255.291l1.183-.317c.096-.027.181-.168.245-.406a2.68 2.68 0 0 0 .117-.82v-7.033a2.27 2.27 0 0 0-.117-.766c-.064-.212-.15-.326-.245-.318-.568.053-1.136.103-1.705.15-1.576.133-2.354-2.415-2.354-7.632v-7.641c0-5.191.778-7.624 2.354-7.157.696.212 1.396.43 2.1.652 1.565.52 2.353 3.103 2.353 7.686v2.52Zm1.182-2.441v-6.055c2.209.746 4.421 1.501 6.637 2.265v5.13c-.667-.135-1.331-.27-1.992-.406v24.149c-.888.394-1.772.781-2.653 1.163v-25.85c-.667-.129-1.331-.26-1.992-.396Zm10.505-2.459v24.916c-.888.4-1.772.799-2.653 1.198v-27.03c.88.305 1.765.61 2.653.916Zm9.013 20.79c-.88.4-1.765.806-2.653 1.217v-16.41a.953.953 0 0 0-.117-.45c-.064-.132-.139-.22-.245-.247l-1.023-.247c-.096-.017-.192.027-.266.141a.919.919 0 0 0-.096.432V44.93c-.88.406-1.765.811-2.653 1.217V27.215c0-3.155.778-4.486 2.355-3.922a273 273 0 0 1 2.354.847c1.566.555 2.344 2.07 2.344 4.468V42.92Zm5.369-7.781V33.04c1.172-.012 2.344-.026 3.516-.044v3.895c0 1.481-.788 2.574-2.354 3.27-.796.365-1.595.729-2.398 1.093-1.566.732-2.343-.035-2.343-2.274V28.96c0-2.213.777-3.076 2.343-2.53.803.282 1.602.558 2.398.828 1.566.52 2.354 1.543 2.354 3.023v1.023c-.845-.094-1.687-.185-2.525-.273v-1.525a.515.515 0 0 0-.117-.309.438.438 0 0 0-.245-.167c-.398-.088-.796-.18-1.193-.273-.107-.027-.192-.01-.267.061a.432.432 0 0 0-.096.291v9.422a.41.41 0 0 0 .096.282c.075.062.16.07.267.026l1.193-.405a.411.411 0 0 0 .245-.194.536.536 0 0 0 .117-.309v-2.926c-.334.042-.664.086-.991.133Z" fill="#72938B"></path><circle cx="14" cy="34" r="3" fill="#F28482"></circle><circle cx="116" cy="34" r="3" fill="#F28482"></circle></g><defs><clipPath id="svg1065178031_4646_a"><path fill="#fff" d="M0 0h129v69H0z"></path></clipPath></defs></svg>