<svg xmlns:xlink="http://www.w3.org/1999/xlink"  width="105" height="77" fill="none" xmlns="http://www.w3.org/2000/svg" id="svg-981795705_11895"><g clip-path="url(#svg-981795705_11895_a)"><path fill-rule="evenodd" clip-rule="evenodd" d="M54.828 37.721V15.66H50.47c-.696 0-1.187-.888-1.474-2.665a18.995 18.995 0 0 1-.184-2.664c0-.91.061-1.798.184-2.665C49.283 5.888 49.774 5 50.47 5h20.627c.696 0 1.166.888 1.412 2.665.163.867.245 1.756.245 2.665s-.082 1.797-.245 2.664c-.246 1.777-.716 2.665-1.412 2.665h-4.113v22.062h4.297c.696 0 1.187.888 1.473 2.665.14.735.219 1.486.24 2.251 2.226-8.226 6.031-16.879 6.031-16.879s18.71 13.726 20.736 21.287c1.169 4.361.12 8.805-2.462 12.185l1.363 5.085a4 4 0 0 1-2.828 4.899l-8.97 2.403a4 4 0 0 1-4.898-2.828l-.79-2.948.59 3.369a58.997 58.997 0 0 1-40.794-1.005A50.644 50.644 0 0 0 4 68.055v-27.51a59.317 59.317 0 0 1 5.81-1.572C9.27 37.391 9 35.651 9 33.755V6.3c0-.826 2.21-1.239 6.63-1.239 4.461 0 6.692.413 6.692 1.24V34.25c0 .826.43 1.487 1.289 1.983.9.496 1.842.743 2.824.743.982 0 1.862-.227 2.64-.681.818-.455 1.227-1.136 1.227-2.045V6.239c0-.826 2.21-1.239 6.63-1.239 4.462 0 6.692.413 6.692 1.24v28.444c0 2.38-.476 4.517-1.43 6.41.624.223 1.245.456 1.863.7a51.116 51.116 0 0 0 4.883 1.654 14.334 14.334 0 0 1 .24-3.062c.246-1.777.717-2.665 1.412-2.665h4.236Z" fill="#272525"></path><path fill-rule="evenodd" clip-rule="evenodd" d="M4 40.545a59.378 59.378 0 0 1 5.81-1.572 15.035 15.035 0 0 1-.71-3.278 18.26 18.26 0 0 1-.1-1.94V6.3c0-.826 2.21-1.239 6.63-1.239 4.461 0 6.692.413 6.692 1.24V34.25c0 .826.43 1.487 1.289 1.983.9.496 1.842.743 2.824.743.982 0 1.862-.227 2.64-.681.818-.455 1.227-1.136 1.227-2.045V6.239c0-.826 2.21-1.239 6.63-1.239 4.462 0 6.692.413 6.692 1.24v28.444a15.52 15.52 0 0 1-.371 3.45 12.953 12.953 0 0 1-1.059 2.96c.624.223 1.245.456 1.863.7a51.278 51.278 0 0 0 4.883 1.654 14.334 14.334 0 0 1 .24-3.062c.05-.365.11-.692.18-.982.269-1.122.68-1.683 1.232-1.683h4.236V15.66H50.47c-.696 0-1.187-.888-1.474-2.665a18.995 18.995 0 0 1-.184-2.664c0-.91.061-1.798.184-2.665C49.283 5.888 49.774 5 50.47 5h20.627c.696 0 1.166.888 1.412 2.665.163.867.245 1.756.245 2.665s-.082 1.797-.245 2.664c-.246 1.777-.716 2.665-1.412 2.665h-4.113v22.062h4.297c.696 0 1.187.888 1.473 2.665.14.735.219 1.486.24 2.251a85.51 85.51 0 0 1 .689-2.4l.008-.028c.466-1.544.97-3.072 1.475-4.523a152.85 152.85 0 0 1 3.86-9.928s1.31.961 3.274 2.515c5.459 4.317 15.97 13.211 17.46 18.772 1.169 4.361.12 8.805-2.462 12.185l1.363 5.085a4 4 0 0 1-2.828 4.899l-8.97 2.403a4.001 4.001 0 0 1-4.899-2.828l-.79-2.948.59 3.369a58.99 58.99 0 0 1-40.794-1.004A50.629 50.629 0 0 0 8 66.695a51.6 51.6 0 0 0-4 1.36V40.544Zm76.572 33.24a62.991 62.991 0 0 1-41.072-1.86 46.645 46.645 0 0 0-34.058-.139A4 4 0 0 1 0 68.056V40.544a4 4 0 0 1 2.761-3.803c.78-.255 1.565-.493 2.352-.716A22.421 22.421 0 0 1 5 33.755V6.3c0-2.33 1.648-3.577 2.458-4.03.843-.473 1.761-.7 2.465-.831 1.48-.277 3.438-.378 5.707-.378 2.289 0 4.26.101 5.747.377.707.13 1.626.355 2.47.824.762.423 2.314 1.57 2.463 3.704.122-2.156 1.673-3.323 2.45-3.759.843-.472 1.762-.699 2.465-.83C32.705 1.101 34.664 1 36.933 1c2.288 0 4.26.101 5.747.377.706.13 1.626.355 2.469.824.333.185.816.508 1.268.99C47.13 2.18 48.431 1 50.47 1h20.627c2.445 0 3.826 1.694 4.409 2.793.545 1.03.804 2.202.951 3.227.2 1.088.297 2.192.297 3.31a18.38 18.38 0 0 1-.297 3.31c-.147 1.024-.406 2.196-.951 3.226-.583 1.1-1.964 2.793-4.41 2.793h-.112v14.062h.297c.113 0 .223.004.331.01a159.97 159.97 0 0 1 3.569-9.163l.132-.305.036-.082.014-.032 3.662 1.609c2.366-3.225 2.367-3.225 2.367-3.224h.001l.017.013.046.034.168.124a148.813 148.813 0 0 1 2.83 2.172 152.865 152.865 0 0 1 6.835 5.697c2.529 2.245 5.2 4.8 7.399 7.333 2.088 2.407 4.178 5.269 4.937 8.103 1.317 4.916.443 9.895-1.99 13.945l.891 3.325a8 8 0 0 1-5.657 9.797l-8.97 2.404a7.992 7.992 0 0 1-7.327-1.697Zm-1.547-48.027-3.662-1.61a4 4 0 0 1 6.028-1.615l-2.366 3.225Zm-28.197-6.099h-.358a4.657 4.657 0 0 1-2.846-.938v16.036a4.642 4.642 0 0 1 2.968-1.036h.236V19.66Z" fill="#fff"></path><path d="M45.5 38V17l7 1.5V34l-7 4Z" fill="#fff"></path><path d="M54.828 37.721V15.66H50.47c-.696 0-1.187-.888-1.474-2.665a18.995 18.995 0 0 1-.184-2.664c0-.91.061-1.798.184-2.665C49.283 5.888 49.774 5 50.47 5h20.627c.696 0 1.166.888 1.412 2.665.163.867.245 1.756.245 2.665s-.082 1.797-.245 2.664c-.246 1.777-.716 2.665-1.412 2.665h-4.113v22.062h4.297c.696 0 1.187.888 1.473 2.665.164.867.246 1.756.246 2.665s-.082 1.797-.246 2.664c-.286 1.777-.777 2.665-1.473 2.665H50.592c-.695 0-1.166-.888-1.412-2.665a14.334 14.334 0 0 1-.245-2.664c0-.91.082-1.797.245-2.665.246-1.777.717-2.665 1.412-2.665h4.236Z" fill="#F28482"></path><path fill-rule="evenodd" clip-rule="evenodd" d="M49.985 7.815a17.997 17.997 0 0 0-.173 2.515c0 .86.058 1.698.173 2.515.136.842.308 1.371.47 1.664a.997.997 0 0 0 .097.15h5.276v24.062h-5.145a1.03 1.03 0 0 0-.082.135c-.153.29-.313.818-.43 1.667l-.003.024-.005.024a13.333 13.333 0 0 0-.228 2.48c0 .848.076 1.674.228 2.48l.005.023.003.025c.117.848.277 1.377.43 1.667a.959.959 0 0 0 .083.134h20.514a.99.99 0 0 0 .098-.15c.162-.293.334-.825.471-1.674l.002-.013.003-.013c.151-.805.228-1.63.228-2.48 0-.848-.077-1.674-.228-2.479l-.003-.013-.002-.013c-.137-.848-.309-1.38-.471-1.674a.99.99 0 0 0-.098-.15h-5.214V14.66h5.022a.978.978 0 0 0 .082-.134c.153-.29.313-.82.43-1.668l.004-.024.004-.024c.152-.805.228-1.63.228-2.48 0-.848-.076-1.674-.228-2.479l-.004-.024-.004-.024c-.117-.849-.277-1.378-.43-1.668A1.015 1.015 0 0 0 71.006 6H50.551a.997.997 0 0 0-.097.15c-.162.293-.334.822-.47 1.665Zm.6-1.848c0 .001-.003.005-.012.01a.046.046 0 0 1 .013-.01Zm20.386-.005s.004.002.011.01c-.008-.005-.012-.01-.011-.01Zm0 8.735s.003-.005.011-.01c-.007.008-.011.01-.011.01Zm.194 23.991s.004.002.012.01c-.008-.005-.012-.009-.012-.01Zm0 8.725s.004-.005.012-.01a.057.057 0 0 1-.012.01Zm-20.446.005s-.005-.002-.012-.01c.008.005.012.01.012.01Zm0-8.735c0 .001-.004.005-.012.01.008-.008.011-.01.012-.01Zm-.133-23.991s-.005-.002-.013-.01c.009.005.013.01.013.01Zm-1.882-9.51c.332-.6.9-1.182 1.766-1.182h20.627c.872 0 1.436.59 1.758 1.198.314.593.513 1.388.64 2.306a15.3 15.3 0 0 1 .26 2.826c0 .96-.087 1.903-.26 2.826-.127.917-.326 1.712-.64 2.305-.322.608-.886 1.198-1.758 1.198h-3.113v20.062h3.297c.865 0 1.433.582 1.765 1.183.327.591.544 1.387.693 2.31.174.926.26 1.872.26 2.837 0 .965-.086 1.91-.26 2.837-.15.922-.366 1.718-.693 2.31-.332.6-.9 1.182-1.765 1.182H50.592c-.872 0-1.436-.59-1.758-1.198-.315-.593-.513-1.388-.64-2.305a15.34 15.34 0 0 1-.26-2.826c0-.961.087-1.904.26-2.826.127-.918.325-1.712.64-2.306.322-.608.886-1.198 1.758-1.198h3.236V16.66H50.47c-.866 0-1.434-.582-1.766-1.182-.328-.595-.545-1.395-.695-2.323l-.002-.01-.001-.01c-.13-.915-.194-1.85-.194-2.804 0-.954.065-1.89.194-2.805l.001-.01.002-.01c.15-.928.367-1.728.695-2.323Z" fill="#272525"></path><path fill-rule="evenodd" clip-rule="evenodd" d="M3.69 39.594a59.995 59.995 0 0 1 40.734 1.27 49.63 49.63 0 0 0 32.51 1.424 1 1 0 0 1 1.271.786l4.545 25.963a1 1 0 0 1-.662 1.12 59.997 59.997 0 0 1-41.484-1.022 49.644 49.644 0 0 0-36.244-.147A1 1 0 0 1 3 68.055v-27.51a1 1 0 0 1 .69-.95ZM5 41.276v25.342a51.637 51.637 0 0 1 36.34.657 57.995 57.995 0 0 0 39.292 1.257l-4.205-24.018a51.63 51.63 0 0 1-32.738-1.79A57.993 57.993 0 0 0 5 41.277Z" fill="#563E79"></path><path d="M5 41.276v25.342a51.637 51.637 0 0 1 36.34.657 57.995 57.995 0 0 0 39.292 1.257l-4.205-24.018a51.63 51.63 0 0 1-32.738-1.79A57.993 57.993 0 0 0 5 41.277Z" fill="#84A59D"></path><path fill-rule="evenodd" clip-rule="evenodd" d="M3.69 39.594a59.995 59.995 0 0 1 40.734 1.27 49.63 49.63 0 0 0 32.51 1.424 1 1 0 0 1 1.271.786l4.545 25.963a1 1 0 0 1-.662 1.12 59.997 59.997 0 0 1-41.484-1.022 49.644 49.644 0 0 0-36.244-.147A1 1 0 0 1 3 68.055v-27.51a1 1 0 0 1 .69-.95ZM5 41.276v25.342a51.637 51.637 0 0 1 36.34.657 57.995 57.995 0 0 0 39.292 1.257l-4.205-24.018a51.63 51.63 0 0 1-32.738-1.79A57.993 57.993 0 0 0 5 41.277Z" fill="#272525"></path><path d="M30.302 6.24c0-.827 2.21-1.24 6.63-1.24 4.462 0 6.692.413 6.692 1.24v28.444c0 4.215-1.494 7.664-4.481 10.35C36.155 47.678 32.02 49 26.742 49c-5.239 0-9.516-1.363-12.83-4.09C10.636 42.142 9 38.424 9 33.755V6.3c0-.826 2.21-1.239 6.63-1.239 4.461 0 6.692.413 6.692 1.24V34.25c0 .826.43 1.487 1.289 1.983.9.496 1.842.743 2.824.743.982 0 1.862-.227 2.64-.681.818-.455 1.227-1.136 1.227-2.045V6.239Z" fill="#F28482"></path><path fill-rule="evenodd" clip-rule="evenodd" d="M31.302 6.522v27.729c0 .609-.138 1.19-.45 1.707-.307.513-.751.91-1.282 1.207-.942.548-1.996.813-3.135.813a6.774 6.774 0 0 1-3.306-.868l-.01-.005-.008-.005c-1.095-.632-1.79-1.588-1.79-2.85V6.588c-.16-.07-.433-.154-.854-.232-1.022-.19-2.62-.293-4.837-.293-2.195 0-3.778.104-4.789.293-.414.077-.682.16-.841.23v27.17c0 4.401 1.527 7.828 4.552 10.387C17.65 46.688 21.685 48 26.742 48c5.114 0 8.983-1.278 11.735-3.713 2.763-2.485 4.147-5.658 4.147-9.602V6.524c-.161-.07-.434-.154-.855-.232C40.747 6.103 39.15 6 36.933 6c-2.196 0-3.778.104-4.79.293-.414.077-.682.16-.84.23Zm-9.837.14Zm10.311-2.335c1.2-.224 2.932-.327 5.157-.327 2.245 0 3.992.103 5.2.327.595.11 1.139.263 1.559.496.41.228.932.674.932 1.416v28.445c0 4.483-1.603 8.208-4.813 11.094l-.005.005C36.582 48.635 32.185 50 26.741 50c-5.418 0-9.935-1.413-13.466-4.318l-.01-.008C9.745 42.697 8 38.688 8 33.753V6.302c0-.737.516-1.184.925-1.414.418-.234.959-.388 1.549-.498 1.199-.224 2.931-.327 5.156-.327 2.245 0 3.993.103 5.201.327.595.11 1.138.263 1.558.496.41.228.933.674.933 1.416v27.95c0 .39.164.754.78 1.112.757.415 1.53.614 2.333.614.821 0 1.524-.188 2.135-.545l.01-.005.01-.005c.283-.158.449-.327.548-.493.099-.164.164-.379.164-.678V6.239c0-.737.516-1.184.926-1.414.418-.234.958-.388 1.548-.498Z" fill="#272525"></path><path fill-rule="evenodd" clip-rule="evenodd" d="M97.3 59.23c2.582-3.38 3.63-7.824 2.461-12.185-2.026-7.562-20.736-21.287-20.736-21.287s-9.34 21.241-7.314 28.803c1.246 4.653 4.725 8.126 9.022 9.627l1.233 4.6a4 4 0 0 0 4.898 2.83l8.97-2.404a4 4 0 0 0 2.828-4.9L97.3 59.23Z" fill="#fff"></path><path fill-rule="evenodd" clip-rule="evenodd" d="m79.617 24.952-.592.806-.915-.402a1 1 0 0 1 1.507-.404ZM98.39 59.436c2.543-3.558 3.545-8.142 2.337-12.65-.57-2.126-2.254-4.548-4.305-6.913-2.08-2.396-4.643-4.852-7.125-7.055a149.88 149.88 0 0 0-6.698-5.583 145.688 145.688 0 0 0-2.926-2.242l-.041-.03-.015-.011-.592.806-.915-.402-.008.016-.02.048-.08.182c-.068.16-.169.394-.295.695a149.882 149.882 0 0 0-4.047 10.712c-1.048 3.147-2.04 6.557-2.643 9.672-.594 3.073-.842 6.013-.272 8.139 1.288 4.808 4.798 8.434 9.156 10.127l1.099 4.1a5 5 0 0 0 6.123 3.536l8.97-2.403a5 5 0 0 0 3.535-6.124l-1.238-4.62ZM79.445 27.323a148.053 148.053 0 0 0-3.887 10.317c-1.035 3.107-1.998 6.426-2.577 9.42-.587 3.037-.747 5.588-.304 7.242 1.156 4.313 4.382 7.543 8.385 8.941a1 1 0 0 1 .637.686l1.233 4.6a3 3 0 0 0 3.674 2.122l8.969-2.403a3 3 0 0 0 2.121-3.674l-1.362-5.085a1 1 0 0 1 .171-.866c2.406-3.148 3.374-7.276 2.29-11.32-.443-1.654-1.857-3.783-3.884-6.119-1.999-2.304-4.492-4.696-6.941-6.87a147.92 147.92 0 0 0-6.608-5.507 146.2 146.2 0 0 0-1.917-1.484Z" fill="#272525"></path><path d="M88.449 47.57a3.457 3.457 0 1 1-6.679 1.79 3.457 3.457 0 0 1 6.679-1.79Z" fill="#272525"></path><path fill-rule="evenodd" clip-rule="evenodd" d="M79.693 25.58 85.6 47.618l-1.932.517-5.906-22.04 1.932-.517Z" fill="#272525"></path><path d="m19.675 47.325-1.315-3.333c-.665-1.688-3.055-1.688-3.72 0l-1.315 3.333-3.333 1.314c-1.688.666-1.688 3.056 0 3.721l3.333 1.315 1.315 3.333c.665 1.688 3.055 1.688 3.72 0l1.315-3.333 3.333-1.314c1.689-.666 1.689-3.056 0-3.721l-3.333-1.315Zm28 12-1.314-3.333c-.666-1.688-3.056-1.688-3.721 0l-1.315 3.333-3.333 1.314c-1.688.666-1.688 3.056 0 3.721l3.333 1.315 1.314 3.333c.666 1.689 3.056 1.689 3.721 0l1.315-3.333 3.333-1.314c1.688-.666 1.688-3.056 0-3.722l-3.333-1.314Zm24-14-1.314-3.333c-.666-1.688-3.056-1.688-3.722 0l-1.314 3.333-3.333 1.314c-1.688.666-1.688 3.056 0 3.721l3.333 1.315 1.314 3.333c.666 1.688 3.056 1.688 3.722 0l1.314-3.333 3.333-1.314c1.689-.666 1.689-3.056 0-3.721l-3.333-1.315Z" fill="#F6BD60" stroke="#272525" stroke-width="2"></path></g><defs><clipPath id="svg-981795705_11895_a"><path fill="#fff" d="M0 0h105v77H0z"></path></clipPath></defs></svg>